<?xml version="1.0" encoding="UTF-8"?>
<svg width="70px" height="39px" viewBox="0 0 70 39" version="1.1" xmlns="http://www.w3.org/2000/svg" xmlns:xlink="http://www.w3.org/1999/xlink">
    <title>eightshift-logo</title>
    <g id="Page-1" stroke="none" stroke-width="1" fill="none" fill-rule="evenodd">
        <g id="Desktop-HD" transform="translate(-135.000000, -3198.000000)" fill="#000000" fill-rule="nonzero">
            <g id="eightshift-logo" transform="translate(135.000000, 3198.000000)">
                <path d="M6.22222222,1.56 C3.64489339,1.56 1.55555556,3.65530737 1.55555556,6.24 L1.55555556,32.76 C1.55555556,35.3446926 3.64489339,37.44 6.22222222,37.44 L63.7777778,37.44 C66.3551066,37.44 68.4444444,35.3446926 68.4444444,32.76 L68.4444444,6.24 C68.4444444,3.65530737 66.3551066,1.56 63.7777778,1.56 L6.22222222,1.56 Z M6.22222222,0 L63.7777778,0 C67.2142162,0 70,2.79374316 70,6.24 L70,32.76 C70,36.2062568 67.2142162,39 63.7777778,39 L6.22222222,39 C2.78578378,39 0,36.2062568 0,32.76 L0,6.24 C0,2.79374316 2.78578378,0 6.22222222,0 Z" id="Rectangle"></path>
                <path d="M12,33 C8.93333333,33 7,31.6023891 7,29.3174061 C7,27.8976109 7.82222222,26.9658703 9.08888889,26.4556314 C7.93333333,25.9232082 7.26666667,25.0358362 7.26666667,23.6382253 C7.26666667,21.2866894 9.2,20 12,20 C14.8,20 16.7333333,21.1979522 16.7333333,23.6382253 C16.7333333,25.0358362 16.0444444,25.9232082 14.8888889,26.4556314 C16.1777778,26.9658703 17,27.8976109 17,29.3174061 C17,31.6023891 14.9555556,33 12,33 Z M12,31.3139932 C13.6666667,31.3139932 14.9777778,30.7593857 14.9777778,29.2508532 C14.9777778,27.7423208 13.6666667,27.1877133 12,27.1877133 C10.3333333,27.1877133 9.02222222,27.7423208 9.02222222,29.2508532 C9.02222222,30.7593857 10.3333333,31.3139932 12,31.3139932 Z M12,25.7235495 C13.7555556,25.7235495 14.7555556,25.1911263 14.7555556,23.7047782 C14.7555556,22.1075085 13.6,21.6860068 12,21.6860068 C10.4,21.6860068 9.24444444,22.1075085 9.24444444,23.7047782 C9.24444444,25.1911263 10.2444444,25.7235495 12,25.7235495 Z" id="8"></path>
            </g>
        </g>
    </g>
</svg>